<svg width="557" height="920" viewBox="0 0 557 920" fill="none" xmlns="http://www.w3.org/2000/svg">
<path d="M28.2825 489.512L45.5284 512.059C45.5284 512.059 65.4302 535.934 74.7081 545.232C83.9861 554.531 115.553 578.101 115.553 578.101C115.553 578.101 126.428 589.015 139.69 598.296C152.952 607.577 160.902 612.891 160.902 612.891L183.441 632.798L199.359 642.079L220.571 656.674C220.571 656.674 225.883 659.33 229.849 659.33C233.815 659.33 239.127 652.688 239.127 652.688L249.733 644.736C249.733 644.736 251.061 640.751 251.061 638.094C251.061 635.437 251.061 634.109 251.061 634.109C251.061 634.109 255.045 631.452 256.373 628.795C257.701 626.139 259.029 622.153 257.701 618.186C256.373 614.201 252.389 610.234 252.389 610.234L257.701 607.577C257.701 607.577 263.013 603.592 261.685 598.296C260.357 592.983 257.701 589.015 253.735 587.687C256.391 583.702 257.719 577.078 257.719 577.078C257.719 577.078 257.719 563.812 256.391 561.155C255.063 558.498 251.079 555.842 251.079 555.842L241.801 557.17V561.155L240.473 566.469L221.899 570.454H208.637L207.309 562.501V555.86L220.571 557.188H236.489L256.391 554.531L263.031 545.25L264.359 537.298C264.359 537.298 233.851 535.97 229.885 535.97C225.919 535.97 198.049 533.313 188.771 535.97C179.493 538.626 172.853 543.922 172.853 543.922C172.853 543.922 167.541 547.907 158.264 546.579C148.986 545.25 134.396 529.328 134.396 529.328C134.396 529.328 109.2 498.811 105.216 492.187C101.232 485.545 93.282 451.06 93.282 451.06L64.1022 431.152L26.9725 439.105L21.6605 470.95L28.2825 489.512Z" fill="#D1C2B8" stroke="#B7B7B7" stroke-miterlimit="10"/>
<path d="M212.621 600.953L253.735 587.687" stroke="#D59F80" stroke-miterlimit="10"/>
<path d="M199.359 620.843L211.293 624.828L223.227 620.843L252.407 610.234" stroke="#D59F80" stroke-miterlimit="10"/>
<path d="M200.687 632.798L208.637 636.766H215.277L231.177 638.094H243.129L251.079 634.109" stroke="#D59F80" stroke-miterlimit="10"/>
<path d="M199.359 602.281L212.621 598.296L219.243 591.672" stroke="#D59F80" stroke-miterlimit="10"/>
<path d="M477.859 496.154C477.859 496.154 477.859 546.561 485.809 579.735C493.759 612.908 505.711 644.736 505.711 679.238C505.711 687.191 505.711 692.504 505.711 692.504L495.105 728.317C495.105 728.317 489.793 744.24 489.793 757.506C489.793 770.772 489.793 784.037 487.137 791.99C484.481 799.942 483.153 815.865 483.153 815.865L484.481 825.146L489.793 829.131H497.743C497.743 829.131 503.055 822.489 504.383 815.865C505.711 809.223 509.695 791.99 509.695 791.99L512.351 784.037L516.335 789.351C516.335 789.351 521.647 794.665 521.647 795.993C521.647 797.321 521.647 807.931 521.647 807.931L517.663 819.868L505.729 830.477L491.139 833.134H476.549L471.237 839.776V846.418L475.221 853.06H477.877V857.045V861.03L485.827 863.687L509.695 857.045L525.613 850.403L542.859 825.2L554.793 805.292C554.793 805.292 556.121 801.307 556.121 797.339C556.121 793.372 553.465 773.464 553.465 773.464C553.465 773.464 546.825 745.604 546.825 732.338C546.825 719.072 546.825 687.226 546.825 687.226L550.809 612.944C550.809 612.944 562.743 553.239 548.153 492.222C533.563 431.206 477.859 496.154 477.859 496.154Z" fill="#D1C2B8" stroke="#B7B7B7" stroke-miterlimit="10"/>
<path d="M517.645 819.85L512.333 835.755L489.793 849.021L477.859 853.006" fill="#D9D9D9"/>
<path d="M517.645 819.85L512.333 835.755L489.793 849.021L477.859 853.006" stroke="#B7B7B7" stroke-miterlimit="10"/>
<path d="M472.547 842.397L496.433 839.74H505.568" fill="#D9D9D9"/>
<path d="M472.547 842.397L496.433 839.74H505.568" stroke="#B7B7B7" stroke-miterlimit="10"/>
<path d="M217.915 65.0013L223.227 34.4843V25.2035V13.2659L339.264 4.64935L343.248 39.1336L334.634 84.9093L321.372 192.365L232.505 188.38L217.915 65.0013Z" fill="#D1C2B8"/>
<path d="M264.466 3.17738C250.541 3.98518 236.794 5.40333 223.227 7.43182V12.9787C223.227 12.9787 232.505 30.2299 248.423 42.1674C259.029 50.1198 264.341 51.4482 264.341 51.4482L277.603 52.7766L290.865 51.4482C290.865 51.4482 318.716 32.8687 333.306 15.6355C337.936 10.1604 339.354 6.82148 339.139 4.82889C328.551 3.73387 317.855 3.03377 307.07 2.67474L264.466 3.17738Z" fill="#D9D9D9" stroke="#B7B7B7" stroke-miterlimit="10"/>
<path d="M264.538 0.520579C250.361 1.32838 236.363 2.74653 222.563 4.77502V10.3219C222.563 10.3219 232.021 27.5731 248.226 39.5106C259.029 47.463 264.431 48.7914 264.431 48.7914L277.926 50.1198L291.421 48.7914C291.421 48.7914 319.775 30.2119 334.634 12.9787C339.354 7.5036 340.79 4.16468 340.574 2.17209C329.807 1.07707 318.914 0.376969 307.931 0.0179443L264.538 0.520579Z" fill="#D1C2B8"/>
<path d="M379.714 673.907L289.537 650.032H253.735H182.113L219.243 489.512L239.145 159.191C239.145 159.191 259.047 173.786 282.915 173.786C306.782 173.786 326.092 154.147 326.092 154.147L347.896 508.091L379.714 673.907Z" fill="#B9B9C0"/>
<path d="M450.671 638.758L278.267 674.571L117.796 659.977L89.9441 755.495L78.7998 868.031C136.818 898.387 202.141 916.679 271.447 919.569C271.304 900.505 271.483 868.265 274.283 868.265C277.046 868.265 278.536 900.308 279.182 919.856C283.058 919.946 286.952 920 290.865 920C351.055 920 408.517 908.368 461.17 887.275C463.7 866.972 467.917 832.308 467.917 825.81C467.917 816.529 465.261 772.746 465.261 772.746L450.671 638.758Z" fill="#8C8D98"/>
<path d="M259.029 827.803C259.029 827.803 301.471 835.755 300.143 782.691C298.815 729.627 300.143 681.877 300.143 681.877H259.029V827.803Z" stroke="#A8A8A8" stroke-miterlimit="10"/>
<path d="M363.796 679.22L314.732 687.173L253.735 691.158L209.965 685.862L216.336 653.765L251.079 659.33L304.127 664.644L305.455 659.33L308.11 658.002C308.11 658.002 343.912 654.017 349.224 650.05C354.518 646.064 363.796 679.22 363.796 679.22Z" fill="#232323"/>
<path d="M317.388 647.375L242.68 650.032L243.129 659.33H247.095V687.173H243.129V697.8H321.372V687.173H314.732L312.417 656.099L318.716 655.345L317.388 647.375Z" fill="#393939"/>
<path d="M221.899 41.1262V51.7354C221.899 51.7354 220.571 57.049 231.177 71.6433C241.783 86.2376 257.701 107.456 257.701 107.456C257.701 107.456 261.685 111.441 263.013 123.379C264.341 135.316 268.325 181.756 268.325 202.974C268.325 224.193 264.341 298.493 264.341 303.788C264.341 309.102 253.735 412.573 253.735 431.134C253.735 449.696 252.407 518.682 251.079 527.981C249.751 537.262 224.555 671.25 213.949 697.782C203.343 724.314 168.852 805.238 158.246 814.519C151.606 819.832 125.082 805.238 117.132 801.253C109.182 797.267 82.6581 773.392 82.6581 773.392C82.6581 773.392 80.0022 770.736 82.6581 749.517C85.3141 728.299 93.2641 684.516 95.92 672.578C98.576 660.641 110.51 603.592 110.51 603.592C110.51 603.592 130.412 504.088 133.05 481.541C135.706 458.995 135.706 368.772 121.116 327.664C117.132 342.258 102.542 391.337 98.576 399.307C94.592 407.259 85.3141 421.854 85.3141 421.854C85.3141 421.854 85.3141 423.182 86.6421 428.496C87.9701 433.809 98.576 457.684 98.576 457.684L95.92 459.013C95.92 459.013 85.3141 440.433 61.4463 441.762C42.8724 443.09 24.3165 464.308 25.6445 473.607C26.9725 482.906 30.9564 492.187 34.9224 497.482C33.5945 498.811 32.2665 498.81 32.2665 498.81L26.9545 493.497L8.38069 470.95C8.38069 470.95 -2.22524 435.138 0.430728 413.901C3.0867 392.665 11.0367 328.992 11.0367 328.992L33.5765 212.255C33.5765 212.255 49.4944 159.191 54.7884 147.254C60.1003 135.316 72.0342 119.394 72.0342 119.394L107.836 106.128L192.719 75.6105C192.719 75.6105 203.325 68.9686 205.981 65.0013C208.637 61.0162 221.899 41.1262 221.899 41.1262Z" fill="#363743"/>
<path d="M342.584 31.8454C342.584 31.8454 342.584 42.4546 338.6 50.4249C334.616 58.3773 320.027 80.942 320.027 80.942L304.109 99.5215C304.109 99.5215 297.469 104.835 297.469 118.101C297.469 131.367 297.469 152.585 297.469 152.585C297.469 152.585 293.485 238.823 294.813 253.399C296.141 267.994 308.075 368.808 308.075 408.606C308.075 448.403 316.025 554.531 321.337 579.735C326.649 604.938 366.434 709.737 371.728 724.332C377.04 738.926 414.17 821.179 414.17 821.179C414.17 821.179 422.12 837.101 440.694 818.522C459.268 799.942 473.857 780.052 473.857 780.052C473.857 780.052 476.513 780.052 473.857 752.192C471.201 724.332 459.268 648.721 455.284 632.798C451.3 616.876 438.038 543.922 436.71 508.091C435.382 472.279 431.398 431.152 439.366 379.417C442.022 370.136 446.006 394.011 446.006 394.011C446.006 394.011 461.924 431.152 465.907 457.684C467.235 488.201 471.219 510.748 471.219 510.748L475.203 513.405C475.203 513.405 488.465 497.482 504.383 496.154C520.301 494.825 540.185 496.154 548.153 500.139C550.809 501.467 553.465 504.124 553.465 504.124L556.121 501.467L550.809 448.403C550.809 448.403 548.153 382.074 546.825 372.793C545.497 363.512 540.185 274.618 540.185 274.618C540.185 274.618 534.873 200.336 518.973 151.239C516.317 139.301 501.727 120.722 501.727 120.722L440.73 96.8468L390.338 79.5957C390.338 79.5957 370.436 71.6433 355.864 47.7502C341.256 23.8751 342.584 31.8454 342.584 31.8454Z" fill="#363743"/>
<path d="M70.15 540.475C71.8189 542.288 73.3622 543.904 74.6902 545.232C83.9682 554.513 115.535 578.101 115.535 578.101C115.535 578.101 126.41 589.015 139.672 598.296C152.934 607.577 160.884 612.891 160.884 612.891L183.423 632.798L199.341 642.079L220.553 656.674C220.553 656.674 225.865 659.33 229.831 659.33C233.797 659.33 239.109 652.688 239.109 652.688L249.715 644.736C249.715 644.736 251.043 640.751 251.043 638.094C251.043 635.437 251.043 634.109 251.043 634.109C251.043 634.109 255.027 631.452 256.355 628.795C257.683 626.139 259.011 622.153 257.683 618.186C256.355 614.201 252.371 610.234 252.371 610.234L257.683 607.577C257.683 607.577 262.995 603.592 261.667 598.296C260.339 592.983 257.683 589.015 253.717 587.687C256.373 583.702 257.701 577.078 257.701 577.078C257.701 577.078 257.701 563.812 256.373 561.155C255.045 558.498 251.061 555.842 251.061 555.842L241.783 557.17V561.155L240.455 566.469L221.881 570.454H208.619L207.291 562.501V555.859L220.553 557.188H236.471L256.373 554.531L263.013 545.25L264.341 537.298C264.341 537.298 233.833 535.97 229.867 535.97C225.901 535.97 198.031 533.313 188.753 535.97C179.475 538.626 172.836 543.922 172.836 543.922C172.836 543.922 167.524 547.907 158.246 546.579C148.968 545.25 134.378 529.328 134.378 529.328C134.378 529.328 119.806 511.682 111.066 500.318" fill="#D1C2B8"/>
<path d="M70.15 540.475C71.8189 542.288 73.3622 543.904 74.6902 545.232C83.9682 554.513 115.535 578.101 115.535 578.101C115.535 578.101 126.41 589.015 139.672 598.296C152.934 607.577 160.884 612.891 160.884 612.891L183.423 632.798L199.341 642.079L220.553 656.674C220.553 656.674 225.865 659.33 229.831 659.33C233.797 659.33 239.109 652.688 239.109 652.688L249.715 644.736C249.715 644.736 251.043 640.751 251.043 638.094C251.043 635.437 251.043 634.109 251.043 634.109C251.043 634.109 255.027 631.452 256.355 628.795C257.683 626.139 259.011 622.153 257.683 618.186C256.355 614.201 252.371 610.234 252.371 610.234L257.683 607.577C257.683 607.577 262.995 603.592 261.667 598.296C260.339 592.983 257.683 589.015 253.717 587.687C256.373 583.702 257.701 577.078 257.701 577.078C257.701 577.078 257.701 563.812 256.373 561.155C255.045 558.498 251.061 555.842 251.061 555.842L241.783 557.17V561.155L240.455 566.469L221.881 570.454H208.619L207.291 562.501V555.859L220.553 557.188H236.471L256.373 554.531L263.013 545.25L264.341 537.298C264.341 537.298 233.833 535.97 229.867 535.97C225.901 535.97 198.031 533.313 188.753 535.97C179.475 538.626 172.836 543.922 172.836 543.922C172.836 543.922 167.524 547.907 158.246 546.579C148.968 545.25 134.378 529.328 134.378 529.328C134.378 529.328 119.806 511.682 111.066 500.318" stroke="#B7B7B7" stroke-miterlimit="10"/>
<path d="M212.621 600.953L253.735 587.687" stroke="#B7B7B7" stroke-miterlimit="10"/>
<path d="M199.359 620.843L211.293 624.828L223.227 620.843L252.407 610.234" stroke="#B7B7B7" stroke-miterlimit="10"/>
<path d="M200.687 632.798L208.637 636.766H215.277L231.177 638.094H243.129L251.079 634.109" stroke="#B7B7B7" stroke-miterlimit="10"/>
<path d="M199.359 602.281L212.621 598.296L219.243 591.672" stroke="#B7B7B7" stroke-miterlimit="10"/>
</svg>
