<svg xmlns="http://www.w3.org/2000/svg" viewBox="0 0 2695.87 512.5"><defs><style>.cls-1,.cls-4{fill:#d1c2b8;}.cls-1,.cls-11,.cls-3{stroke:#b7b7b7;}.cls-1,.cls-11,.cls-2,.cls-3,.cls-7{stroke-miterlimit:10;}.cls-11,.cls-2,.cls-7{fill:none;}.cls-2{stroke:#d59f80;}.cls-3{fill:#d9d9d9;}.cls-5{fill:#b9b9c0;}.cls-6{fill:#8c8d98;}.cls-7{stroke:#a8a8a8;}.cls-8{fill:#232323;}.cls-9{fill:#393939;}.cls-10{fill:#363743;}</style></defs><g id="Capa_2" data-name="Capa 2"><g id="brazo_der_copia" data-name="brazo der copia"><path class="cls-1" d="M1444.19,272.69l9.6,12.57s11.09,13.3,16.26,18.47S1492.81,322,1492.81,322a112.81,112.81,0,0,0,13.45,11.25c7.39,5.17,11.83,8.13,11.83,8.13l12.56,11.09,8.87,5.17,11.82,8.13a14.6,14.6,0,0,0,5.18,1.48c2.21,0,5.17-3.7,5.17-3.7l5.91-4.43a15.05,15.05,0,0,0,.74-3.7v-2.22a10.31,10.31,0,0,0,3-2.95,7.89,7.89,0,0,0,.73-5.91,13.87,13.87,0,0,0-3-4.44l3-1.48s3-2.21,2.22-5.17-2.22-5.17-4.43-5.91a19.86,19.86,0,0,0,2.21-5.91s0-7.39-.73-8.87a10.39,10.39,0,0,0-3-3l-5.17.74v2.22l-.74,3-10.35,2.21h-7.39l-.74-4.43v-3.7l7.39.74h8.87l11.09-1.48,3.69-5.17.74-4.43s-17-.74-19.21-.74-17.74-1.48-22.91,0a28,28,0,0,0-8.87,4.43s-3,2.22-8.13,1.48-13.3-9.61-13.3-9.61-14-17-16.26-20.69-6.65-22.91-6.65-22.91l-16.26-11.08-20.69,4.43-3,17.74Z"/><line class="cls-2" x1="1546.91" y1="334.77" x2="1569.82" y2="327.38"/><polyline class="cls-2" points="1539.52 345.85 1546.17 348.07 1552.82 345.85 1569.08 339.94"/><polyline class="cls-2" points="1540.26 352.5 1544.69 354.72 1548.39 354.72 1557.25 355.46 1563.9 355.46 1568.34 353.24"/><polyline class="cls-2" points="1539.52 335.51 1546.91 333.29 1550.6 329.6"/><path class="cls-1" d="M1694.71,276.39s0,28.08,4.43,46.56,11.09,36.21,11.09,55.42v7.39l-5.91,19.95s-3,8.87-3,16.26,0,14.78-1.48,19.22-2.21,13.3-2.21,13.3l.73,5.17,3,2.22h4.43a20.72,20.72,0,0,0,3.7-7.39c.74-3.7,3-13.3,3-13.3l1.47-4.44,2.22,3s3,3,3,3.69v6.65l-2.22,6.66-6.65,5.91-8.13,1.48H1694l-3,3.69v3.7l2.22,3.69h1.48v4.43l4.43,1.48,13.31-3.69,8.86-3.7,9.61-14,6.65-11.08a16.13,16.13,0,0,0,.74-4.44c0-2.21-1.48-13.3-1.48-13.3s-3.69-15.52-3.69-22.91V382.8l2.21-41.38s6.66-33.25-1.47-67.25S1694.71,276.39,1694.71,276.39Z"/><polyline class="cls-3" points="1716.88 456.7 1713.92 465.57 1701.36 472.96 1694.71 475.18"/><polyline class="cls-3" points="1691.75 469.27 1705.06 467.79 1710.15 467.79"/><polygon class="cls-4" points="1549.86 36.21 1552.82 19.21 1552.82 14.04 1552.82 7.39 1617.48 2.59 1619.7 21.8 1614.9 47.3 1607.51 107.16 1557.99 104.94 1549.86 36.21"/><path class="cls-3" d="M1575.8,1.77q-11.64.68-23,2.37V7.23a56.42,56.42,0,0,0,14,16.26c5.91,4.43,8.87,5.17,8.87,5.17l7.39.74,7.39-.74S1606,18.31,1614.16,8.71c2.58-3.06,3.37-4.91,3.25-6q-8.85-.92-17.87-1.2Z"/><path class="cls-4" d="M1575.84.29Q1564,1,1552.45,2.66V5.75A56.59,56.59,0,0,0,1566.75,22c6,4.43,9,5.17,9,5.17l7.52.74,7.52-.74s15.8-10.35,24.08-19.95c2.63-3.05,3.43-4.91,3.31-6q-9-.9-18.19-1.2Z"/><path class="cls-5" d="M1640,375.41l-50.25-13.3h-59.86l20.69-89.42,11.09-184s11.08,8.13,24.39,8.13,24.05-10.94,24.05-10.94L1622.29,283Z"/><path class="cls-6" d="M1679.56,355.83l-96.07,19.95-89.42-8.12-15.52,53.2-6.21,62.69a254,254,0,0,0,107.36,28.71c-.08-10.63,0-28.58,1.57-28.58s2.37,17.85,2.73,28.74q3.24.08,6.51.08a254.69,254.69,0,0,0,94.9-18.23c1.41-11.31,3.76-30.62,3.76-34.24,0-5.17-1.48-29.56-1.48-29.56Z"/><path class="cls-7" d="M1572.77,461.14s23.65,4.43,22.91-25.13,0-56.16,0-56.16h-22.91Z"/><path class="cls-8" d="M1631.15,378.37l-27.34,4.43-34,2.22-24.39-2.95,3.55-17.89,19.36,3.11,29.56,2.95.74-2.95,1.48-.74s20-2.22,22.91-4.44S1631.15,378.37,1631.15,378.37Z"/><polygon class="cls-9" points="1605.29 360.63 1563.66 362.11 1563.9 367.29 1566.12 367.29 1566.12 382.81 1563.9 382.81 1563.9 388.72 1607.51 388.72 1607.51 382.81 1603.81 382.81 1602.52 365.49 1606.03 365.07 1605.29 360.63"/><path class="cls-10" d="M1552.08,22.91v5.91s-.74,3,5.17,11.09,14.78,20,14.78,20,2.22,2.22,3,8.87,3,32.51,3,44.34-2.22,53.21-2.22,56.16-5.91,60.6-5.91,71-.74,48.77-1.48,53.94-14.78,79.82-20.69,94.6-25.13,59.86-31,65c-3.7,3-18.48-5.17-22.91-7.39s-19.21-15.52-19.21-15.52-1.48-1.48,0-13.3,5.91-36.21,7.39-42.86,8.12-38.43,8.12-38.43,11.09-55.43,12.57-68,1.48-62.82-6.65-85.73c-2.22,8.13-10.35,35.48-12.57,39.91S1476,235,1476,235a20.76,20.76,0,0,0,.74,3.7c.74,3,6.65,16.26,6.65,16.26l-1.47.74a21.18,21.18,0,0,0-19.22-9.61c-10.34.74-20.69,12.56-20,17.73a31.34,31.34,0,0,0,5.17,13.31,2.29,2.29,0,0,1-1.48.74l-3-3-10.35-12.56s-5.91-20-4.43-31.78l5.91-47.3,12.56-65S1456,88.68,1459,82s9.6-15.52,9.6-15.52l20-7.39,47.29-17s5.91-3.69,7.39-5.91Z"/><path class="cls-10" d="M1619.33,17.74s0,5.91-2.22,10.34-10.34,17-10.34,17l-8.87,10.35s-3.7,3-3.7,10.34V85s-2.21,48-1.47,56.16,7.39,64.29,7.39,86.46,4.43,81.29,7.39,95.34,25.12,72.42,28.08,80.55,23.65,53.94,23.65,53.94,4.43,8.87,14.78-1.47a210.74,210.74,0,0,0,18.47-21.44s1.48,0,0-15.51-8.13-57.65-10.34-66.51S1672.54,303,1671.8,283s-3-42.86,1.48-71.68c1.48-5.18,3.69,8.12,3.69,8.12s8.87,20.7,11.09,35.48a252.78,252.78,0,0,0,3,29.56l2.22,1.47s7.39-8.86,16.26-9.6,20,0,24.39,2.21a13.91,13.91,0,0,1,2.95,2.22l1.48-1.48-3-29.56s-1.47-36.95-2.21-42.12-3.7-54.69-3.7-54.69-3-41.38-11.82-68.72c-1.48-6.65-9.61-17-9.61-17L1674,54l-28.09-9.61s-11.08-4.43-19.21-17.74S1619.33,17.74,1619.33,17.74Z"/><path class="cls-1" d="M1467.52,301.08c.93,1,1.79,1.91,2.53,2.65,5.17,5.17,22.76,18.31,22.76,18.31a112.81,112.81,0,0,0,13.45,11.25c7.39,5.17,11.83,8.13,11.83,8.13l12.56,11.09,8.87,5.17,11.82,8.13a14.6,14.6,0,0,0,5.18,1.48c2.21,0,5.17-3.7,5.17-3.7l5.91-4.43a15.05,15.05,0,0,0,.74-3.7v-2.22a10.31,10.31,0,0,0,3-2.95,7.89,7.89,0,0,0,.73-5.91,13.87,13.87,0,0,0-3-4.44l3-1.48s3-2.21,2.22-5.17-2.22-5.17-4.43-5.91a19.86,19.86,0,0,0,2.21-5.91s0-7.39-.73-8.87a10.39,10.39,0,0,0-3-3l-5.17.74v2.22l-.74,3-10.35,2.21h-7.39l-.74-4.43v-3.7l7.39.74h8.87l11.09-1.48,3.69-5.17.74-4.43s-17-.74-19.21-.74-17.74-1.48-22.91,0a28,28,0,0,0-8.87,4.43s-3,2.22-8.13,1.48-13.3-9.61-13.3-9.61-8.12-9.83-13-16.16"/><line class="cls-11" x1="1546.91" y1="334.77" x2="1569.82" y2="327.38"/><polyline class="cls-11" points="1539.52 345.85 1546.17 348.07 1552.82 345.85 1569.08 339.94"/><polyline class="cls-11" points="1540.26 352.5 1544.69 354.72 1548.39 354.72 1557.25 355.46 1563.9 355.46 1568.34 353.24"/><polyline class="cls-11" points="1539.52 335.51 1546.91 333.29 1550.6 329.6"/></g><g id="Capa_13" data-name="Capa 13"><path class="cls-10" d="M1968.65,321.7q0-16.18-11.28-26t-39.6-18.5q-48.58-14.64-73.73-34.5t-25.15-54.16q0-34.5,28.33-56.38t72.28-21.88q46.63,0,75.07,23.52T2022,195.46l-.39,1.15h-54.54q0-21-12.72-32.28t-35.66-11.28q-20.82,0-32.19,10t-11.37,25.63q0,14.26,12.33,23.42t42.6,19.37q46.26,13.11,70.54,34.21t24.29,55.61q0,36-28.14,56.86T1922.39,399q-45.3,0-77.77-22.55t-31.51-67.27l.38-1.15H1868q0,24.86,14.65,36.62t39.7,11.76q22.54,0,34.41-9.45T1968.65,321.7Z"/><path class="cls-10" d="M2117.06,212.8a71.75,71.75,0,0,1,24.09-22.26,63.55,63.55,0,0,1,31.61-8q32.58,0,51.18,21.69t18.6,67V395h-56.29V270.82q0-24.28-7.8-34.4T2155,226.3q-12.92,0-22.45,4.14a38.8,38.8,0,0,0-15.52,11.85V395h-56.28V94.27h56.28Z"/><path class="cls-10" d="M2276.27,288.74q0-46.64,26-76.42t72.08-29.78q46.26,0,72.47,29.69t26.22,76.51v4.05q0,47-26.12,76.62T2374.76,399q-46.26,0-72.38-29.58t-26.11-76.62Zm56.08,4.05q0,28.53,10,45.78t32.38,17.25q21.78,0,31.9-17.35t10.12-45.68v-4.05q0-27.75-10.22-45.29t-32.19-17.54q-21.78,0-31.9,17.64t-10.12,45.19Z"/><path class="cls-10" d="M2695.87,296.45q0,46.26-21.4,74.4T2614.72,399q-16.38,0-29.1-6.07a59.8,59.8,0,0,1-21.78-17.83v100h-56.09V186.4h50.69l3.28,24.67A66.85,66.85,0,0,1,2584,190q13-7.41,30.36-7.42,38.73,0,60.13,30.26t21.4,79.61Zm-56.29-4q0-29.49-9.83-47.8t-30.06-18.31q-12.72,0-21.69,5.2a37.19,37.19,0,0,0-14.16,14.84V337.7A34.49,34.49,0,0,0,2578,351.19q9,4.63,22.07,4.63,20.43,0,30-16t9.54-43.37Z"/><path class="cls-10" d="M168.65,335.42h-91L58.79,396H0L94.64,115.31h57.63L246.52,396H187.73Zm-77.1-44.13H155l-31-98.88h-1.15Z"/><path class="cls-10" d="M356.38,356.82q14.64,0,23.32-8.77t8.68-23.42h51.27l.38,1.16q.77,31.6-23.51,52.91T356.38,400q-46.26,0-71.51-29.58t-25.25-75.65V289q0-45.87,25.16-75.65T356,183.54q38.16,0,61.48,22T440,263.34l-.38,1.16H388.38q0-16.2-8.58-26.89T356,226.91q-21.79,0-30.94,17.44T315.9,289v5.79q0,27.75,9.16,44.9T356.38,356.82Z"/><path class="cls-10" d="M595.77,396a116.88,116.88,0,0,1-5.3-15,103.94,103.94,0,0,1-3.18-16.19A77.22,77.22,0,0,1,564.35,390q-14.26,10-33.92,10-32.77,0-50.5-16.86t-17.73-46q0-30.65,23.61-47.51t68.9-16.87h31.61V256.21q0-15-7.9-23.33t-23.51-8.28q-13.7,0-21.11,6.65t-7.42,18.21H472.22l-.39-1.16q-1.35-26.4,23-45.58t63.7-19.18q37.57,0,60.81,18.89t23.22,54.16v86.16a162.73,162.73,0,0,0,2.22,27.56,138.11,138.11,0,0,0,7,25.64ZM544.3,358.36A48,48,0,0,0,570.52,351q11.57-7.34,15.8-17v-29.5H554.71q-17.93,0-27.08,8.87a29.14,29.14,0,0,0-9.15,21.78q0,10.61,6.84,16.87T544.3,358.36Z"/><path class="cls-10" d="M872.93,297.45q0,46.26-21.39,74.4T791.79,400q-16.39,0-29.11-6.07a59.8,59.8,0,0,1-21.78-17.83v100H684.81V187.4H735.5l3.28,24.67A67,67,0,0,1,761,191q13-7.41,30.36-7.42,38.75,0,60.14,30.26t21.39,79.61Zm-56.28-4q0-29.49-9.83-47.8T776.75,227.3q-12.72,0-21.68,5.2a37.14,37.14,0,0,0-14.17,14.84V338.7a34.46,34.46,0,0,0,14.17,13.49q9,4.63,22.07,4.63,20.43,0,30-16t9.54-43.37Z"/><path class="cls-10" d="M998,400q-46.65,0-72.86-28.62T899,297.65v-7.71q0-46.85,25.44-76.71t70-29.69q42,0,64.47,25.73t22.45,69.3v29.1H957l-.57,1.16q1.33,21.39,13,34.69t34.59,13.3q18.9,0,32.1-3.86a130.83,130.83,0,0,0,27.27-11.75l15.23,34.69q-12.54,10.22-33.93,17.15A150.29,150.29,0,0,1,998,400Zm-3.66-173.08q-17,0-26.12,11.66t-11.08,30.94l.38,1h68.62v-4.24q0-18.31-7.52-28.81T994.36,226.91Z"/><path class="cls-10" d="M1173.22,396h-56.28V95.27h56.28Z"/><path class="cls-10" d="M1342.45,396a118.41,118.41,0,0,1-5.3-15,103.94,103.94,0,0,1-3.18-16.19A77.11,77.11,0,0,1,1311,390q-14.27,10-33.92,10-32.77,0-50.5-16.86t-17.73-46q0-30.65,23.61-47.51t68.91-16.87H1333V256.21q0-15-7.91-23.33t-23.51-8.28q-13.69,0-21.11,6.65t-7.42,18.21H1218.9l-.38-1.16q-1.35-26.4,23-45.58t63.7-19.18q37.59,0,60.81,18.89t23.23,54.16v86.16a162.76,162.76,0,0,0,2.21,27.56,138.93,138.93,0,0,0,7,25.64ZM1291,358.36A48,48,0,0,0,1317.2,351q11.57-7.34,15.81-17v-29.5H1301.4q-17.93,0-27.08,8.87a29.11,29.11,0,0,0-9.16,21.78q0,10.61,6.84,16.87T1291,358.36Z"/></g></g></svg>